<!--?xml version="1.0" standalone="no"?-->
              <svg id="sw-js-blob-svg" viewBox="0 0 100 100" xmlns="http://www.w3.org/2000/svg" version="1.1">
                    <defs> 
                        <linearGradient id="sw-gradient" x1="0" x2="1" y1="1" y2="0">
                            <stop id="stop1" stop-color="rgba(255, 253, 119, 1)" offset="0%"></stop>
                            <stop id="stop2" stop-color="rgba(255, 253, 112, 1)" offset="100%"></stop>
                        </linearGradient>
                    </defs>
                <path fill="none" d="M23.3,-31.8C31.1,-26.4,39.1,-20.8,41.1,-13.6C43.1,-6.4,39.1,2.5,35.8,11.2C32.4,20,29.7,28.5,23.8,33.1C18,37.7,9,38.3,0,38.4C-9.1,38.4,-18.1,37.9,-25.3,33.8C-32.6,29.6,-37.9,21.9,-39.5,13.6C-41,5.4,-38.8,-3.2,-36,-11.7C-33.2,-20.1,-29.9,-28.3,-23.8,-34.4C-17.7,-40.4,-8.9,-44.3,-0.6,-43.5C7.7,-42.7,15.5,-37.3,23.3,-31.8Z" width="100%" height="100%" transform="translate(50 50)" stroke-width="1" style="transition: all 0.3s ease 0s;" stroke="url(#sw-gradient)"></path>
              </svg>