<!--?xml version="1.0" standalone="no"?-->
              <svg id="sw-js-blob-svg" viewBox="0 0 100 100" xmlns="http://www.w3.org/2000/svg" version="1.1">
                    <defs> 
                        <linearGradient id="sw-gradient" x1="0" x2="1" y1="1" y2="0">
                            <stop id="stop1" stop-color="rgba(248, 117, 55, 1)" offset="0%"></stop>
                            <stop id="stop2" stop-color="rgba(251, 168, 31, 1)" offset="100%"></stop>
                        </linearGradient>
                    </defs>
                <path fill="none" d="M22,-27C29.2,-20.2,36.2,-13.9,37.7,-6.5C39.3,1,35.3,9.6,30.4,17.1C25.5,24.5,19.5,31,11.5,35.6C3.5,40.3,-6.6,43.2,-14.4,40.1C-22.2,37.1,-27.7,28.1,-29.8,19.5C-32,11,-30.9,2.9,-29.6,-5.3C-28.3,-13.5,-26.6,-21.7,-21.7,-28.9C-16.7,-36.2,-8.3,-42.5,-0.5,-42C7.4,-41.4,14.8,-33.9,22,-27Z" width="100%" height="100%" transform="translate(50 50)" stroke-width="1" style="transition: all 0.3s ease 0s;" stroke="url(#sw-gradient)"></path>
              </svg>